<?xml version="1.0" encoding="UTF-8"?>
<svg id="Layer_1" data-name="Layer 1" xmlns="http://www.w3.org/2000/svg" xmlns:xlink="http://www.w3.org/1999/xlink" viewBox="0 0 283.46 283.46">
  <defs>
    <style>
      .cls-1 {
        fill: url(#linear-gradient-12);
      }

      .cls-1, .cls-2, .cls-3, .cls-4, .cls-5, .cls-6, .cls-7, .cls-8, .cls-9, .cls-10, .cls-11, .cls-12, .cls-13, .cls-14 {
        stroke-width: 0px;
      }

      .cls-15 {
        clip-path: url(#clippath-11);
      }

      .cls-2 {
        fill: url(#linear-gradient);
      }

      .cls-3 {
        fill: url(#linear-gradient-6);
      }

      .cls-16 {
        clip-path: url(#clippath-2);
      }

      .cls-17 {
        clip-path: url(#clippath-6);
      }

      .cls-4 {
        fill: url(#linear-gradient-11);
      }

      .cls-5 {
        fill: url(#linear-gradient-5);
      }

      .cls-6 {
        fill: none;
      }

      .cls-18 {
        clip-path: url(#clippath-7);
      }

      .cls-19 {
        clip-path: url(#clippath-1);
      }

      .cls-20 {
        clip-path: url(#clippath-4);
      }

      .cls-7 {
        fill: url(#linear-gradient-2);
      }

      .cls-8 {
        fill: url(#linear-gradient-7);
      }

      .cls-9 {
        fill: url(#linear-gradient-3);
      }

      .cls-10 {
        fill: #013a71;
      }

      .cls-21 {
        clip-path: url(#clippath-9);
      }

      .cls-22 {
        clip-path: url(#clippath);
      }

      .cls-11 {
        fill: url(#linear-gradient-9);
      }

      .cls-23 {
        clip-path: url(#clippath-3);
      }

      .cls-12 {
        fill: url(#linear-gradient-8);
      }

      .cls-24 {
        clip-path: url(#clippath-8);
      }

      .cls-25 {
        clip-path: url(#clippath-5);
      }

      .cls-13 {
        fill: url(#linear-gradient-10);
      }

      .cls-26 {
        clip-path: url(#clippath-10);
      }

      .cls-14 {
        fill: url(#linear-gradient-4);
      }
    </style>
    <clipPath id="clippath">
      <path class="cls-6" d="M59.44,160.52v11.27c0,.95-.03,1.73-.08,2.34-.06.61-.15,1.13-.29,1.55-.14.42-.33.76-.58,1.02-.25.26-.59.51-1,.73h8.36c-.41-.22-.74-.47-.98-.73-.24-.26-.44-.61-.57-1.02-.14-.42-.23-.94-.29-1.55-.05-.61-.08-1.39-.08-2.34v-14.54c-1.39,1.28-2.94,2.42-4.47,3.27"/>
    </clipPath>
    <linearGradient id="linear-gradient" x1="-219.76" y1="2123.21" x2="-217.66" y2="2123.21" gradientTransform="translate(20482.67 197773.81) scale(93.07 -93.07)" gradientUnits="userSpaceOnUse">
      <stop offset="0" stop-color="#013a71"/>
      <stop offset="0" stop-color="#013a71"/>
      <stop offset=".44" stop-color="#003b72"/>
      <stop offset=".6" stop-color="#004279"/>
      <stop offset=".71" stop-color="#004e85"/>
      <stop offset=".8" stop-color="#005f96"/>
      <stop offset=".88" stop-color="#0075ac"/>
      <stop offset=".94" stop-color="#008fc6"/>
      <stop offset="1" stop-color="#00ace3"/>
    </linearGradient>
    <clipPath id="clippath-1">
      <path class="cls-6" d="M31.93,185.16l202.86,1.05s11.51-.3,11.51-1.17-11.51-.94-11.51-.94l-202.86,1.06Z"/>
    </clipPath>
    <linearGradient id="linear-gradient-2" x1="-216.86" y1="2125.21" x2="-214.75" y2="2125.21" gradientTransform="translate(16472.49 161033.98) scale(75.69 -75.69)" xlink:href="#linear-gradient"/>
    <clipPath id="clippath-2">
      <path class="cls-6" d="M48.72,135.04c-1.32,0-2.35.01-3.1.03-.74.02-1.34.03-1.8.03h-8.67c.62.33,1.11.69,1.48,1.08.37.39.66.9.87,1.52.21.62.35,1.39.43,2.29.08.91.13,2.07.13,3.47v26.34c0,1.4-.04,2.56-.13,3.47-.08.91-.23,1.67-.43,2.29-.21.62-.5,1.13-.87,1.52-.37.39-.87.75-1.48,1.09h12.89c-.65-.41-1.19-.85-1.61-1.3-.43-.45-.77-.97-1.04-1.55-.26-.58-.45-1.26-.55-2.04-.1-.78-.15-1.71-.15-2.79v-30.36c.91-.21,1.68-.34,2.33-.4.64-.06,1.37-.09,2.2-.09,2.98,0,5.31.71,7,2.14s2.54,3.42,2.54,5.98c0,2.69-1.14,5.02-3.43,7-1.08.91-2.24,1.6-3.49,2.08-1.25.48-2.91.84-4.98,1.08.87.33,1.61.56,2.23.68.62.12,1.45.19,2.48.19,1.98,0,3.85-.32,5.61-.96,1.76-.64,3.28-1.52,4.59-2.63,1.3-1.11,2.33-2.42,3.1-3.9.77-1.49,1.15-3.08,1.15-4.77,0-2.06-.6-3.98-1.8-5.73-1.2-1.76-2.81-3.13-4.83-4.12-1.2-.58-2.47-.99-3.81-1.24-1.34-.25-2.95-.37-4.8-.37h-2.04Z"/>
    </clipPath>
    <linearGradient id="linear-gradient-3" x1="-219.76" y1="2123.38" x2="-217.66" y2="2123.38" gradientTransform="translate(20472.37 197778.49) scale(93.07 -93.07)" xlink:href="#linear-gradient"/>
    <clipPath id="clippath-3">
      <path class="cls-6" d="M111.92,148c-1.36.36-2.53.89-3.49,1.58-.97.69-1.71,1.52-2.23,2.48s-.78,2.06-.78,3.26c0,.98.2,1.92.61,2.82.41.9.98,1.67,1.71,2.32.31.31.64.59.99.84.35.25.77.51,1.24.78.48.27,1.02.56,1.64.86.62.31,1.36.66,2.23,1.05.9.42,1.65.78,2.27,1.07.62.3,1.14.56,1.56.78.42.23.77.44,1.06.63.28.2.55.41.8.63.45.39.81.87,1.08,1.43.26.56.4,1.14.4,1.73,0,.65-.17,1.24-.5,1.79-.34.55-.8,1.03-1.39,1.43-.59.41-1.29.73-2.11.97-.81.24-1.7.36-2.65.36-3.54,0-6.78-1.18-9.72-3.53l1.35,5.51c1.4.51,2.7.86,3.89,1.07,1.19.21,2.51.32,3.94.32,3.93,0,7.03-1.09,9.3-3.28.9-.84,1.58-1.78,2.04-2.82.46-1.04.7-2.1.7-3.2,0-1.96-.8-3.58-2.4-4.84-.34-.28-.69-.54-1.07-.78-.38-.24-.82-.5-1.33-.78-.5-.28-1.09-.58-1.75-.91-.66-.32-1.45-.7-2.38-1.11-1.32-.62-2.41-1.16-3.26-1.62-.86-.46-1.53-.9-2.02-1.32-.49-.42-.83-.85-1.01-1.28-.18-.44-.28-.93-.28-1.49,0-1.26.53-2.27,1.6-3.03,1.06-.76,2.48-1.14,4.25-1.14,1.35,0,2.62.25,3.83.76,1.21.5,2.29,1.22,3.24,2.15v-5.05c-1.21-.34-2.34-.58-3.41-.74-1.07-.16-2.19-.23-3.37-.23-1.68,0-3.21.18-4.57.55"/>
    </clipPath>
    <linearGradient id="linear-gradient-4" x1="-219.76" y1="2122.86" x2="-217.66" y2="2122.86" gradientTransform="translate(20493.49 197736.72) scale(93.07 -93.07)" xlink:href="#linear-gradient"/>
    <clipPath id="clippath-4">
      <path class="cls-6" d="M129.21,148.37c.42.22.75.47,1,.73.25.26.45.61.59,1.02.14.42.24.93.29,1.55.06.61.08,1.39.08,2.34v17.77c0,.95-.03,1.73-.08,2.34-.06.61-.15,1.13-.29,1.55-.14.42-.33.76-.59,1.02-.25.26-.58.51-1,.73h8.4c-.42-.22-.75-.47-1-.73-.25-.26-.45-.61-.58-1.02-.14-.42-.24-.94-.29-1.55-.06-.61-.08-1.39-.08-2.34v-17.77c0-.95.03-1.73.08-2.34.05-.61.15-1.13.29-1.55.14-.42.33-.76.58-1.02.25-.26.58-.51,1-.73h-8.4Z"/>
    </clipPath>
    <linearGradient id="linear-gradient-5" x1="-219.76" y1="2122.73" x2="-217.66" y2="2122.73" gradientTransform="translate(20497.9 197724.57) scale(93.07 -93.07)" xlink:href="#linear-gradient"/>
    <clipPath id="clippath-5">
      <path class="cls-6" d="M149.65,174.04c-.43-.03-.98-.11-1.64-.25v-22.07c.86-.2,1.57-.33,2.14-.4.57-.07,1.21-.11,1.93-.11,1.83,0,3.5.29,5.01.86,1.51.57,2.76,1.4,3.76,2.49.97,1.06,1.72,2.33,2.25,3.8.53,1.48.79,3.03.79,4.64,0,3.85-1.41,6.83-4.24,8.95-1.03.75-2.2,1.3-3.53,1.63-1.33.33-2.95.5-4.87.5-.64,0-1.17-.01-1.6-.04M150.84,148.29c-.61,0-1.25.01-1.92.04-.61.03-1.16.04-1.65.04h-5.7c.42.22.75.47,1,.73.25.26.45.61.59,1.02.14.42.24.93.29,1.55.06.61.09,1.39.09,2.34v17.56c0,1-.03,1.8-.09,2.38-.05.58-.15,1.09-.29,1.51-.06.17-.11.31-.15.44-.04.12-.12.25-.23.38-.11.12-.26.27-.44.44-.18.17-.44.41-.77.71h7.11c1.56,0,2.94-.03,4.12-.09,1.18-.05,2.23-.14,3.16-.25.92-.11,1.73-.26,2.45-.44.71-.18,1.36-.41,1.94-.69,1.28-.58,2.45-1.34,3.49-2.26,1.05-.92,1.93-1.96,2.66-3.12.73-1.16,1.29-2.42,1.69-3.78.41-1.36.61-2.77.61-4.22,0-2.15-.43-4.13-1.29-5.96-.86-1.82-2.09-3.39-3.69-4.7-1.5-1.28-3.16-2.21-4.96-2.78-1.81-.57-3.97-.86-6.47-.86h-1.54Z"/>
    </clipPath>
    <linearGradient id="linear-gradient-6" x1="-219.76" y1="2122.58" x2="-217.66" y2="2122.58" gradientTransform="translate(20503.74 197709.94) scale(93.07 -93.07)" xlink:href="#linear-gradient"/>
    <clipPath id="clippath-6">
      <path class="cls-6" d="M172.28,148.37c.42.22.75.47,1,.73.25.26.45.61.58,1.02.14.42.24.93.29,1.55.05.61.08,1.39.08,2.34v17.77c0,.95-.03,1.73-.08,2.34-.06.61-.15,1.13-.29,1.55-.14.42-.33.76-.58,1.02-.25.26-.58.51-1,.73h8.4c-.42-.22-.75-.47-1-.73-.25-.26-.45-.61-.59-1.02-.14-.42-.24-.94-.29-1.55-.06-.61-.09-1.39-.09-2.34v-17.77c0-.95.03-1.73.09-2.34.05-.61.15-1.13.29-1.55.14-.42.33-.76.59-1.02.25-.26.58-.51,1-.73h-8.4Z"/>
    </clipPath>
    <linearGradient id="linear-gradient-7" x1="-219.76" y1="2122.42" x2="-217.66" y2="2122.42" gradientTransform="translate(20509.59 197695.63) scale(93.07 -93.07)" xlink:href="#linear-gradient"/>
    <clipPath id="clippath-7">
      <path class="cls-6" d="M205.84,148.37c.45.3.82.61,1.13.92.3.31.55.65.73,1.04.18.39.31.84.38,1.36.07.52.11,1.14.11,1.86v17.27l-16.35-20.82c-.22-.28-.39-.5-.5-.67-.11-.17-.2-.31-.27-.42-.07-.11-.12-.2-.17-.27-.04-.07-.08-.16-.1-.27h-6.44c.45.3.82.61,1.11.9.29.29.53.64.71,1.04.18.4.31.86.38,1.38.07.52.11,1.14.11,1.86v18.69c0,.73-.04,1.35-.11,1.86-.07.52-.19.97-.36,1.36-.17.39-.4.74-.71,1.04-.3.31-.7.61-1.17.92h7.86c-.45-.28-.82-.57-1.11-.88-.29-.31-.53-.66-.71-1.07-.18-.4-.31-.86-.38-1.38s-.11-1.14-.11-1.86v-17.65l15.47,19.61c.89,1.23,1.82,2.21,2.78,2.95.96.74,2.05,1.3,3.28,1.69v-25.3c0-.72.04-1.34.11-1.86.07-.52.19-.97.36-1.36.17-.39.41-.74.71-1.04.3-.31.7-.61,1.17-.92h-7.9Z"/>
    </clipPath>
    <linearGradient id="linear-gradient-8" y1="2122.25" x2="-217.66" y2="2122.25" gradientTransform="translate(20515.63 197680.72) scale(93.07 -93.07)" xlink:href="#linear-gradient"/>
    <clipPath id="clippath-8">
      <path class="cls-6" d="M228.33,148.43c-1.87.52-3.59,1.3-5.18,2.36-2.17,1.45-3.84,3.23-5.01,5.33-1.17,2.1-1.75,4.42-1.75,6.96s.55,4.71,1.65,6.77c1.1,2.06,2.67,3.79,4.7,5.18,1.56,1.06,3.29,1.84,5.18,2.34,1.9.5,4.06.75,6.48.75.72,0,1.41-.01,2.07-.04.66-.03,1.32-.08,2.01-.17.68-.08,1.43-.2,2.24-.33.81-.14,1.71-.31,2.72-.5.42-.11.7-.17.86-.19s.38-.04.69-.06c-.11-.31-.18-.58-.21-.84-.03-.25-.04-.73-.04-1.42v-9.36c0-1.17.08-2.04.25-2.59h-6.69c.42.22.75.46,1,.73.25.26.45.61.59,1.03.14.42.24.93.29,1.55.06.61.08,1.39.08,2.34v5.85c-.69.25-1.61.45-2.75.61-1.14.16-2.23.23-3.29.23-1.78,0-3.44-.33-5-.98-1.55-.65-2.91-1.55-4.06-2.67-1.15-1.13-2.06-2.45-2.73-3.95-.67-1.5-1-3.12-1-4.85s.31-3.27.92-4.7c.61-1.44,1.46-2.67,2.54-3.7,1.08-1.03,2.38-1.83,3.89-2.4,1.52-.57,3.17-.86,4.98-.86s3.24.21,4.46.63c1.22.42,2.33,1.09,3.33,2.01v-5.06c-.72-.14-1.39-.26-1.98-.36-.6-.1-1.16-.17-1.69-.23-.53-.06-1.06-.1-1.59-.13-.53-.03-1.1-.04-1.71-.04-2.31,0-4.4.26-6.26.77"/>
    </clipPath>
    <linearGradient id="linear-gradient-9" x1="-219.76" y1="2122.03" x2="-217.66" y2="2122.03" gradientTransform="translate(20523.17 197659.32) scale(93.07 -93.07)" xlink:href="#linear-gradient"/>
    <clipPath id="clippath-9">
      <path class="cls-6" d="M98.14,148.33c-.2.03-.5.04-.92.04h-14.72c.39.22.71.46.96.71.25.25.45.58.61,1,.15.42.26.94.32,1.57.05.63.08,1.41.08,2.36v17.73c0,.95-.03,1.74-.08,2.36-.06.62-.15,1.15-.29,1.57-.14.42-.33.76-.58,1.02-.14.15-.31.29-.51.43-.7-.4-1.41-.87-2.11-1.43-.89-.71-1.86-1.63-2.91-2.74-1.04-1.11-2.21-2.46-3.49-4.03-1.28-1.57-2.75-3.48-4.39-5.71,1.03-.25,1.99-.63,2.86-1.13.88-.5,1.64-1.09,2.28-1.76.64-.67,1.14-1.41,1.48-2.22s.52-1.63.52-2.47c0-1.06-.26-2.1-.79-3.12-.53-1.02-1.24-1.86-2.13-2.53-.81-.59-1.73-1.02-2.77-1.3-.76-.2-1.64-.33-2.62-.39,0,.16.01.32.01.48,0,.77-.19,1.59-.54,2.43.96.2,1.78.6,2.46,1.22.99.91,1.48,2.09,1.48,3.53,0,3.37-2.47,5.48-7.4,6.32,1.2,2.03,2.46,3.99,3.78,5.87,1.32,1.88,2.64,3.59,3.95,5.12.75.89,1.41,1.62,1.97,2.2.56.57,1.09,1.02,1.61,1.34.52.32,1.02.54,1.52.67.5.12,1.07.19,1.72.19h.62c.2,0,.44-.01.71-.04.28-.03.63-.06,1.07-.08.43-.03.98-.07,1.65-.12h17.38l2.05-5.77c-1.2.89-2.46,1.53-3.77,1.92-1.31.39-2.93.58-4.85.58-1,0-1.9-.03-2.7-.1-.79-.07-1.71-.19-2.74-.36v-10.5h3.93c.98,0,1.71.08,2.2.25.49.17.91.49,1.28.96v-4.68c-.28.14-.52.22-.71.25-.2.03-.46.04-.8.04h-5.9v-8.24c.64-.11,1.3-.19,1.97-.23.67-.04,1.53-.06,2.59-.06.7,0,1.31.03,1.84.08.53.06,1,.15,1.4.27.41.12.77.31,1.11.54.34.24.68.52,1.04.86v-5.14c-.31.11-.56.18-.75.21"/>
    </clipPath>
    <linearGradient id="linear-gradient-10" x1="-219.76" y1="2123.09" x2="-217.66" y2="2123.09" gradientTransform="translate(20485.3 197757.71) scale(93.07 -93.07)" xlink:href="#linear-gradient"/>
    <clipPath id="clippath-10">
      <polygon class="cls-6" points="162.94 128.88 176.15 118.28 173.93 117.67 162.94 128.88"/>
    </clipPath>
    <linearGradient id="linear-gradient-11" x1="-76.75" y1="2243.51" x2="-74.65" y2="2243.51" gradientTransform="translate(778.1 18164.78) scale(8.04 -8.04)" xlink:href="#linear-gradient"/>
    <clipPath id="clippath-11">
      <path class="cls-6" d="M113.91,115.56s0,0,0,0M108.91,97.48s0,0,0,0M161.52,114.13l5.15-15.66,6.83,2.04-6.95,15.05-5.03-1.43ZM140.66,108.19s-1.26-.39-3.28-.96c.02-.39.04-.78.07-1.18.06-.67.06-1.35.14-2.02l.2-2.02c.07-.67.18-1.34.27-2.01.05-.33.09-.67.14-1l.18-1c.2-1.34.49-2.66.77-3.99l.49-1.97c.12-.51.27-1.01.42-1.52l23.6,7.05-3.88,16.06-19.1-5.44ZM118.12,103.06c-.06-3.64.33-7.27,1.21-10.8.46-1.99,1.09-3.94,1.83-5.85,3.81.49,8.47,1.36,14.14,2.69l3.15.94c-.76,2.51-1.37,5.06-1.81,7.65-.45,2.74-.76,5.5-.85,8.28-.01.27-.02.54-.03.81-.34-.09-.68-.19-1.04-.28l-.33-.09.14.04c-4.57-1.22-10.93-2.73-16.4-3.39M140.09,90.36c.03-.09.05-.18.08-.28.73-2.61,1.65-5.16,2.66-7.68.99-2.39,2.1-4.75,3.34-7.04l21.16,6.96-3.47,14.37-23.77-6.33ZM135.93,89.25s-6.96-1.95-14.58-3.32c.55-1.37,1.16-2.72,1.82-4.05,1.65-3.32,3.68-6.46,5.92-9.43.5-.66,1.02-1.31,1.55-1.96.71.15,1.45.32,2.23.5l12.43,4.09c-1.38,2.17-2.64,4.43-3.73,6.77-1.22,2.61-2.25,5.32-3.09,8.08l-2.55-.68ZM135.94,63.43c-2.3,2.02-4.48,4.18-6.5,6.5-9.79-2.58-28.75-6.13-12.46,10.42,0,0-13.11-15.16,12.23-10.15-.4.46-.8.93-1.19,1.41-2.42,2.94-4.54,6.14-6.32,9.52-.76,1.47-1.45,2.97-2.07,4.51-12.88-2.14-26.31-2.14-10.72,11.85-.05-.05-13.42-13.81,10.5-11.28-.71,1.84-1.31,3.73-1.78,5.65-.86,3.61-1.27,7.33-1.17,11.03-9.19-.82-14.8,1.35-2.54,12.67-.04-.05-9.98-10.54,2.6-11.32.09,1.6.28,3.19.54,4.77.15.95.36,1.88.56,2.82.11.46.24.93.36,1.39l.18.69.21.68.43,1.37.48,1.35c.15.45.33.9.51,1.34l.54,1.32c.78,1.73,1.59,3.45,2.53,5.1,1.85,3.31,3.98,6.45,6.36,9.38-2.07-3.16-3.98-6.4-5.6-9.77-.83-1.67-1.55-3.4-2.23-5.14-.62-1.76-1.25-3.51-1.7-5.32-.87-3.28-1.39-6.65-1.53-10.02,3.91.01,9.56.79,17.6,2.74-.02,1.07,0,2.13,0,3.2.01.69.06,1.39.09,2.08.04.69.07,1.38.16,2.07.51,5.51,1.68,10.95,3.52,16.12-1.13-5.38-1.9-10.79-2.15-16.21-.05-.68-.04-1.36-.05-2.04,0-.68-.04-1.35-.03-2.03.03-.93.04-1.86.08-2.79.02,0,.05.01.07.02l22.17,6.87-5.17,21.4,6.87-20.87,4.91,1.52-7.19,15.57,9.01-15.01,5.14,1.59.74-.76-5.45-1.55,9.39-15.64-3.86-1.07-7.03-1.87,5.15-15.63-4.39-1.25-.03.13.03-.14-21.22-5.92c1.27-2.27,2.64-4.49,4.22-6.58-1.92,1.9-3.54,4.09-5.06,6.34l-11.68-3.26c-.64-.2-1.77-.54-3.2-.94,1.79-2.18,3.7-4.26,5.72-6.23,2.68-2.62,5.52-5.09,8.57-7.31-3.27,1.9-6.28,4.21-9.15,6.68"/>
    </clipPath>
    <linearGradient id="linear-gradient-12" x1="-193.69" y1="2145.41" x2="-191.59" y2="2145.41" gradientTransform="translate(6284.52 68542.12) scale(31.9 -31.9)" xlink:href="#linear-gradient"/>
  </defs>
  <g class="cls-22">
    <rect class="cls-2" x="51.78" y="157.05" width="19.74" height="20.58" transform="translate(-96.3 84.56) rotate(-42.12)"/>
  </g>
  <g class="cls-19">
    <rect class="cls-7" x="58.9" y="112.49" width="160.43" height="145.34" transform="translate(-88.25 141.11) rotate(-42.12)"/>
  </g>
  <g class="cls-16">
    <rect class="cls-9" x="24.67" y="130.26" width="51.82" height="52.69" transform="translate(-91.96 74.36) rotate(-42.12)"/>
  </g>
  <g class="cls-23">
    <rect class="cls-14" x="97.05" y="144.3" width="36.35" height="37.03" transform="translate(-79.44 119.31) rotate(-42.12)"/>
  </g>
  <g class="cls-20">
    <rect class="cls-5" x="120.55" y="149.3" width="25.72" height="27.19" transform="translate(-74.8 131.54) rotate(-42.12)"/>
  </g>
  <g class="cls-25">
    <rect class="cls-3" x="135.31" y="142.92" width="39.74" height="39.87" transform="translate(-69.15 146.12) rotate(-42.12)"/>
  </g>
  <g class="cls-17">
    <rect class="cls-8" x="163.62" y="149.3" width="25.72" height="27.19" transform="translate(-63.68 160.42) rotate(-42.12)"/>
  </g>
  <g class="cls-18">
    <rect class="cls-12" x="177.89" y="142.44" width="42.28" height="42.35" transform="translate(-58.33 175.72) rotate(-42.12)"/>
  </g>
  <g class="cls-24">
    <rect class="cls-11" x="209.86" y="142" width="41.65" height="41.79" transform="translate(-49.68 196.77) rotate(-42.12)"/>
  </g>
  <g class="cls-21">
    <rect class="cls-13" x="59.96" y="139.18" width="48.04" height="47.44" transform="translate(-87.56 98.38) rotate(-42.12)"/>
  </g>
  <g class="cls-26">
    <rect class="cls-4" x="160.89" y="114.68" width="17.32" height="17.18" transform="translate(-38.89 145.54) rotate(-42.12)"/>
  </g>
  <g class="cls-15">
    <rect class="cls-1" x="77.79" y="38.58" width="115.61" height="115.2" transform="translate(-29.49 115.77) rotate(-42.12)"/>
  </g>
  <g>
    <path class="cls-10" d="M67.14,198.85c-.14-.11-.28-.22-.44-.32-.16-.1-.34-.2-.54-.32-.21-.11-.44-.24-.71-.37-.27-.13-.6-.28-.97-.46-.54-.25-.98-.47-1.33-.66-.35-.19-.62-.37-.83-.54-.2-.17-.34-.34-.41-.52-.08-.18-.11-.38-.11-.61,0-.52.22-.93.65-1.24.44-.31,1.02-.46,1.74-.46.55,0,1.07.1,1.57.31.49.21.93.5,1.32.88v-2.06c-.49-.14-.96-.24-1.39-.3s-.89-.09-1.38-.09c-.69,0-1.31.08-1.87.22-.56.15-1.03.36-1.43.65s-.7.62-.91,1.01c-.21.4-.32.84-.32,1.33,0,.4.08.79.25,1.15.16.37.4.68.7.95.13.13.26.24.4.34.14.11.31.21.51.32s.42.22.67.35c.25.13.56.27.91.43.37.17.68.32.93.44.25.12.46.23.64.32.17.09.32.18.43.26.12.08.22.17.33.26.18.16.33.36.44.58.11.23.16.46.16.7,0,.26-.07.51-.21.73-.14.22-.33.42-.57.58-.24.17-.53.3-.86.4s-.69.15-1.08.15c-1.44,0-2.77-.48-3.97-1.44l.55,2.25c.57.21,1.1.35,1.59.44.49.09,1.02.13,1.61.13,1.61,0,2.87-.45,3.8-1.34.37-.34.64-.73.83-1.15s.28-.86.28-1.31c0-.8-.33-1.46-.98-1.98"/>
    <path class="cls-10" d="M88.7,193.84c-.57-.56-1.27-1-2.1-1.31-.83-.32-1.67-.47-2.53-.47-.98,0-1.88.16-2.72.48-.84.32-1.56.77-2.18,1.33-.61.57-1.09,1.24-1.44,2.01-.35.77-.52,1.61-.52,2.52s.17,1.69.52,2.44c.34.76.81,1.41,1.41,1.97.6.56,1.3.99,2.1,1.32.8.32,1.67.48,2.59.48s1.82-.16,2.63-.49c.81-.33,1.52-.78,2.12-1.35.6-.57,1.08-1.25,1.43-2.02.35-.77.53-1.6.53-2.49,0-.83-.16-1.63-.49-2.42-.33-.78-.78-1.45-1.35-2M88.13,200.48c-.22.58-.53,1.09-.94,1.5-.4.42-.88.74-1.44.97-.56.23-1.18.34-1.85.34-1.29,0-2.35-.45-3.17-1.36-.47-.52-.83-1.11-1.08-1.79-.25-.67-.38-1.36-.38-2.06,0-.65.11-1.28.33-1.88.22-.6.53-1.1.92-1.51.4-.41.9-.74,1.48-.98.59-.24,1.19-.36,1.81-.36,1.4,0,2.53.53,3.42,1.58.4.48.7,1.03.92,1.64.21.61.32,1.26.32,1.95s-.11,1.36-.33,1.94"/>
    <path class="cls-10" d="M106.66,202.76c-.26.09-.52.15-.8.19-.28.04-.57.06-.9.06-.39,0-.79-.02-1.21-.05-.42-.03-.83-.08-1.23-.14v-8.15c0-.39.01-.71.04-.96.02-.25.06-.46.12-.63.06-.17.14-.31.24-.42.1-.11.24-.21.41-.3h-3.46c.17.09.31.19.41.3.1.11.18.25.24.42.06.17.1.38.12.63.02.25.03.57.03.96v7.31c0,.39-.01.71-.03.97s-.06.47-.12.64c-.06.17-.14.32-.24.43-.1.11-.24.21-.41.3h7.43l.96-2.42c-.3.21-.58.38-.83.52-.26.15-.52.26-.77.34"/>
    <path class="cls-10" d="M127.47,193.74c.02-.25.06-.46.12-.64.06-.17.14-.31.25-.42s.24-.21.4-.3h-3.44c.16.09.29.19.39.3.1.11.18.25.25.42.06.17.1.38.13.64.02.25.03.57.03.96v5.9c0,.34-.03.62-.08.83-.05.21-.15.41-.3.61-.27.39-.64.7-1.1.92-.46.22-.96.34-1.49.34-.47,0-.9-.09-1.3-.26s-.73-.42-.99-.74c-.25-.29-.42-.6-.5-.92-.09-.33-.13-.79-.13-1.4v-5.28c0-.39.01-.71.03-.96.02-.25.06-.46.12-.64.05-.17.14-.31.24-.42.11-.11.24-.21.4-.3h-3.44c.17.09.31.19.41.3.1.11.18.25.24.42.06.17.1.38.12.64.02.25.04.57.04.96v5.28c0,.37,0,.68.02.94.01.26.03.49.07.69.04.2.08.38.13.54.05.16.12.32.21.48.32.63.81,1.11,1.48,1.46.67.34,1.44.52,2.31.52,1.53,0,2.73-.51,3.58-1.54v1.26h2.58c-.16-.09-.29-.19-.4-.3s-.19-.25-.25-.42c-.06-.17-.1-.38-.12-.63-.02-.25-.03-.57-.03-.96v-7.31c0-.39.01-.71.03-.96"/>
    <path class="cls-10" d="M145.9,192.33s-.13,0-.24,0c-.11,0-.27.01-.46.03h-6.84c-.17,0-.34-.01-.52-.03-.17-.02-.31-.05-.41-.09l-.67,2.17c.19-.14.36-.25.53-.34.17-.09.33-.16.51-.21.17-.05.36-.09.58-.1.21-.02.46-.03.75-.03.22,0,.47,0,.76,0,.29,0,.52.02.7.04v8.22c0,.38-.01.7-.04.95-.02.26-.07.47-.13.64s-.15.32-.25.43c-.11.11-.24.21-.4.29h3.61c-.2-.13-.36-.25-.48-.38-.13-.13-.22-.27-.29-.43-.07-.16-.12-.34-.15-.56-.03-.21-.04-.47-.04-.77v-8.41h.29c.22-.01.39-.02.52-.03.13,0,.23-.01.3-.02.08,0,.14,0,.21,0h.25c.53,0,.91.05,1.14.15.24.1.42.28.56.54l.58-2.17c-.09.03-.16.05-.21.06-.05,0-.1.01-.16.03"/>
    <path class="cls-10" d="M157.44,193.73c.02-.25.06-.46.12-.64.06-.17.14-.31.24-.42.1-.11.24-.21.41-.3h-3.46c.17.09.31.19.41.3.11.11.19.25.24.42.06.17.1.38.12.64.02.25.04.57.04.96v7.31c0,.39-.01.71-.04.96-.02.25-.06.46-.12.64-.06.17-.14.31-.24.42-.1.11-.24.21-.41.3h3.46c-.17-.09-.31-.19-.41-.3-.1-.11-.19-.25-.24-.42-.06-.17-.1-.38-.12-.64-.02-.25-.03-.57-.03-.96v-7.31c0-.39.01-.71.03-.96"/>
    <path class="cls-10" d="M179,193.84c-.57-.56-1.27-1-2.1-1.31-.83-.32-1.67-.47-2.53-.47-.98,0-1.88.16-2.72.48-.84.32-1.56.77-2.18,1.33-.61.57-1.09,1.24-1.44,2.01-.35.77-.52,1.61-.52,2.52s.17,1.69.52,2.44c.34.76.81,1.41,1.41,1.97.6.56,1.3.99,2.1,1.32.8.32,1.67.48,2.59.48s1.82-.16,2.63-.49c.82-.33,1.52-.78,2.12-1.35.6-.57,1.08-1.25,1.43-2.02.35-.77.53-1.6.53-2.49,0-.83-.16-1.63-.49-2.42-.33-.78-.78-1.45-1.35-2M178.43,200.48c-.22.58-.53,1.09-.94,1.5-.4.42-.88.74-1.44.97-.56.23-1.18.34-1.85.34-1.29,0-2.35-.45-3.17-1.36-.47-.52-.83-1.11-1.08-1.79-.25-.67-.38-1.36-.38-2.06,0-.65.11-1.28.33-1.88.22-.6.53-1.1.92-1.51.4-.41.9-.74,1.48-.98.59-.24,1.19-.36,1.81-.36,1.4,0,2.53.53,3.41,1.58.4.48.71,1.03.92,1.64.21.61.32,1.26.32,1.95s-.11,1.36-.33,1.94"/>
    <path class="cls-10" d="M199.36,192.75c.13.13.23.27.3.43.08.16.13.35.16.56.03.21.04.47.04.77v7.1l-6.72-8.56c-.09-.11-.16-.21-.21-.28-.05-.07-.08-.13-.11-.17-.03-.04-.05-.08-.07-.11-.02-.03-.03-.07-.04-.11h-2.65c.18.13.33.25.46.37.12.12.22.26.29.43.07.17.13.36.15.57.03.21.04.47.04.77v7.69c0,.3-.01.55-.04.76-.03.21-.08.4-.15.56-.07.16-.17.3-.29.43s-.29.25-.48.38h3.23c-.18-.12-.33-.24-.45-.36-.12-.13-.22-.27-.29-.44-.07-.17-.13-.36-.15-.57-.03-.21-.04-.47-.04-.76v-7.26l6.36,8.06c.37.5.75.91,1.14,1.21.4.3.85.54,1.35.7v-10.4c0-.3.01-.55.04-.77.03-.21.08-.4.15-.56.07-.16.17-.3.29-.43.13-.13.29-.25.48-.38h-3.25c.18.13.34.25.46.38"/>
    <path class="cls-10" d="M218.89,198.85c-.14-.11-.28-.22-.44-.32-.15-.1-.33-.2-.54-.32-.21-.11-.44-.24-.71-.37-.27-.13-.59-.28-.97-.46-.54-.25-.98-.47-1.33-.66-.35-.19-.63-.37-.83-.54-.2-.17-.34-.34-.41-.52-.08-.18-.11-.38-.11-.61,0-.52.22-.93.65-1.24.44-.31,1.02-.46,1.74-.46.55,0,1.07.1,1.57.31.49.21.93.5,1.32.88v-2.06c-.49-.14-.96-.24-1.39-.3s-.89-.09-1.38-.09c-.69,0-1.31.08-1.87.22-.56.15-1.03.36-1.43.65-.4.28-.7.62-.91,1.01-.21.4-.32.84-.32,1.33,0,.4.08.79.25,1.15.17.37.4.68.7.95.13.13.26.24.4.34.14.11.31.21.51.32s.42.22.67.35c.25.13.56.27.91.43.37.17.68.32.93.44.25.12.46.23.64.32.17.09.32.18.43.26.11.08.22.17.33.26.18.16.33.36.44.58.11.23.16.46.16.7,0,.26-.07.51-.21.73-.14.22-.33.42-.57.58-.24.17-.53.3-.86.4s-.69.15-1.08.15c-1.44,0-2.77-.48-3.97-1.44l.55,2.25c.57.21,1.1.35,1.59.44.49.09,1.02.13,1.61.13,1.61,0,2.87-.45,3.8-1.34.37-.34.64-.73.83-1.15s.28-.86.28-1.31c0-.8-.33-1.46-.98-1.98"/>
  </g>
</svg>